<?xml version="1.0" standalone="no"?>
<!DOCTYPE svg PUBLIC "-//W3C//DTD SVG 20010904//EN"
 "http://www.w3.org/TR/2001/REC-SVG-20010904/DTD/svg10.dtd">
<svg version="1.0" xmlns="http://www.w3.org/2000/svg"
 width="300.000000pt" height="225.000000pt" viewBox="0 0 300.000000 225.000000"
 preserveAspectRatio="xMidYMid meet">
<metadata>
Created by potrace 1.10, written by Peter Selinger 2001-2011
</metadata>
<g transform="translate(0.000000,225.000000) scale(0.100000,-0.100000)"
fill="#000000" stroke="none">
<path d="M0 1125 l0 -1125 1500 0 1500 0 0 1125 0 1125 -1500 0 -1500 0 0
-1125z m1695 980 c50 -14 103 -35 119 -47 16 -12 40 -22 53 -24 35 -4 149 -74
218 -135 187 -163 297 -374 331 -632 18 -144 13 -231 -22 -367 -35 -134 -135
-322 -205 -387 -13 -12 -49 -47 -79 -78 -95 -98 -239 -182 -401 -236 -92 -30
-314 -38 -441 -15 -111 20 -138 32 -91 42 17 3 34 12 37 20 6 15 46 20 46 5 0
-5 9 -11 20 -14 27 -7 50 30 25 40 -10 3 -15 13 -12 24 3 11 1 19 -4 19 -5 0
-9 7 -9 16 0 11 -5 14 -16 10 -12 -4 -14 -1 -9 14 8 24 -17 52 -42 49 -10 -1
-31 1 -46 6 -19 5 -32 3 -40 -5 -10 -10 -8 -12 5 -7 11 4 25 -2 37 -15 20 -20
59 -19 46 2 -3 5 -1 10 4 10 17 0 13 -27 -5 -45 -16 -15 -19 -15 -40 8 -13 14
-37 28 -53 32 -29 6 -36 22 -17 36 5 4 34 5 64 4 69 -5 87 5 41 21 -18 6 -33
17 -31 24 1 7 -5 18 -15 25 -15 11 -12 12 19 9 33 -4 36 -2 34 18 -1 13 -8 33
-14 45 -17 31 -15 35 11 21 25 -14 68 -18 61 -6 -8 12 31 9 43 -3 17 -17 35
-1 27 23 -5 16 -3 20 9 15 9 -3 18 1 22 11 5 13 8 14 14 3 13 -20 24 5 17 35
-5 19 -4 24 6 18 9 -6 9 -3 -1 10 -8 9 -19 15 -26 13 -16 -7 -13 71 4 105 17
33 9 58 -17 52 -24 -7 -46 20 -39 46 4 16 -1 23 -19 30 -13 5 -24 14 -24 20 0
16 -26 40 -48 45 -13 2 -18 -3 -17 -20 0 -13 3 -26 7 -30 4 -4 4 -13 2 -20 -3
-8 4 -27 17 -44 12 -16 19 -37 16 -45 -8 -20 -27 -21 -27 -1 0 8 -4 15 -9 15
-5 0 -11 9 -14 21 -3 12 -10 19 -15 16 -17 -11 -47 38 -47 79 0 25 -8 50 -22
67 -25 32 -33 34 -26 7 6 -23 -4 -25 -29 -6 -21 15 -23 32 -5 39 9 4 9 6 -1 6
-8 1 -16 -8 -19 -19 -5 -19 -6 -19 -18 -3 -7 10 -11 22 -8 26 3 5 -4 11 -16
14 -22 6 -29 23 -9 23 6 0 8 3 5 7 -4 3 -3 11 2 17 7 8 0 18 -20 31 -29 19
-46 55 -40 84 1 8 -3 17 -10 21 -8 5 -5 10 10 15 11 3 21 11 21 16 0 6 4 8 9
5 5 -3 11 1 15 9 7 19 40 19 55 1 12 -14 51 -11 51 4 0 5 9 6 20 3 11 -3 20 0
20 6 0 6 -6 11 -12 11 -9 0 -9 3 1 9 10 6 12 19 8 42 -6 31 -5 32 8 15 8 -10
12 -23 9 -27 -3 -5 0 -9 6 -9 7 0 9 -7 6 -16 -5 -14 -4 -15 9 -4 17 15 21 35
3 24 -7 -4 -8 -3 -4 4 9 15 33 16 38 2 2 -7 11 -4 23 5 20 16 20 16 -3 10 -22
-6 -23 -5 -17 27 6 30 3 36 -19 46 -30 13 -32 24 -10 43 19 16 58 23 49 9 -3
-6 1 -7 9 -4 9 3 16 16 16 29 0 14 7 25 20 28 19 5 29 37 12 37 -5 0 -19 14
-31 31 -17 23 -20 34 -12 42 21 21 13 47 -14 47 -26 0 -46 -27 -28 -39 15 -9
23 -40 13 -46 -5 -3 -7 -12 -3 -20 3 -8 0 -15 -6 -15 -6 0 -11 7 -11 15 0 8
-6 15 -12 15 -8 0 -9 3 -3 8 15 11 13 118 -2 115 -7 -2 -10 3 -7 11 3 8 1 17
-5 20 -6 4 -8 13 -4 21 7 19 -16 19 -40 1 -18 -14 -18 -14 0 -19 17 -4 17 -4
-1 -12 -11 -5 -21 -3 -25 4 -5 8 -15 3 -31 -14 -17 -18 -27 -22 -36 -14 -35
29 -113 -26 -101 -71 3 -14 -1 -21 -17 -26 -22 -7 -33 -4 -28 9 6 18 -9 4 -17
-16 -12 -31 -51 -34 -50 -4 0 12 3 16 6 10 2 -7 9 -13 14 -13 4 0 6 7 3 15 -4
10 0 15 12 15 16 0 16 2 -4 16 -28 20 -28 41 1 50 34 10 57 35 57 61 0 20 5
23 35 23 19 0 35 4 35 9 0 5 12 12 27 16 21 5 24 8 12 16 -23 14 -47 11 -102
-15 -67 -32 -107 -42 -107 -27 0 6 4 11 10 11 5 0 7 6 4 14 -3 7 2 21 11 30 9
9 13 16 8 16 -20 0 101 77 182 115 151 72 268 96 455 90 98 -3 145 -9 215 -30z
m-448 -362 c-4 -3 -10 -3 -14 0 -3 4 0 7 7 7 7 0 10 -3 7 -7z m-357 -83 c0 -5
-4 -10 -10 -10 -5 0 -10 5 -10 10 0 6 5 10 10 10 6 0 10 -4 10 -10z m-35 -30
c3 -5 4 -10 1 -10 -3 0 -8 5 -11 10 -3 6 -4 10 -1 10 3 0 8 -4 11 -10z m280
-80 c3 -5 1 -10 -4 -10 -6 0 -11 5 -11 10 0 6 2 10 4 10 3 0 8 -4 11 -10z m2
-62 c-3 -8 -6 -5 -6 6 -1 11 2 17 5 13 3 -3 4 -12 1 -19z m-401 -45 c-10 -10
-19 5 -10 18 6 11 8 11 12 0 2 -7 1 -15 -2 -18z m374 -16 c0 -18 -2 -19 -10
-7 -13 20 -13 43 0 35 6 -3 10 -16 10 -28z m-140 -2 c0 -8 -4 -15 -10 -15 -5
0 -10 7 -10 15 0 8 5 15 10 15 6 0 10 -7 10 -15z m-230 -9 c0 -7 -8 -16 -19
-19 -14 -3 -17 0 -14 14 6 22 33 26 33 5z m350 -6 c0 -5 -4 -10 -10 -10 -5 0
-10 5 -10 10 0 6 5 10 10 10 6 0 10 -4 10 -10z m-143 -27 c-4 -3 -7 0 -7 7 0
7 3 10 7 7 3 -4 3 -10 0 -14z m88 7 c3 -5 1 -10 -4 -10 -6 0 -11 5 -11 10 0 6
2 10 4 10 3 0 8 -4 11 -10z m72 -12 c-3 -8 -6 -5 -6 6 -1 11 2 17 5 13 3 -3 4
-12 1 -19z m-260 -105 c-4 -3 -7 0 -7 7 0 7 3 10 7 7 3 -4 3 -10 0 -14z m70
10 c-4 -3 -10 -3 -14 0 -3 4 0 7 7 7 7 0 10 -3 7 -7z m-72 -83 c7 0 16 -6 18
-12 3 -7 6 -4 6 7 1 17 3 17 11 5 13 -20 12 -49 -4 -85 l-14 -30 -11 28 c-6
15 -17 27 -26 27 -16 0 -20 15 -6 24 4 3 7 18 5 33 -2 16 -1 22 2 16 3 -7 12
-13 19 -13z m102 3 c-4 -3 -7 0 -7 7 0 7 3 10 7 7 3 -4 3 -10 0 -14z m41 -54
c-2 -6 -7 -10 -11 -10 -4 1 -15 1 -24 2 -15 0 -15 2 2 9 28 12 37 12 33 -1z
m-511 -16 c-4 -3 -7 0 -7 7 0 7 3 10 7 7 3 -4 3 -10 0 -14z m0 -45 c-3 -7 -5
-2 -5 12 0 14 2 19 5 13 2 -7 2 -19 0 -25z m770 -95 c-4 -3 -7 0 -7 7 0 7 3
10 7 7 3 -4 3 -10 0 -14z m-117 -18 c0 -8 -2 -15 -4 -15 -2 0 -6 7 -10 15 -3
8 -1 15 4 15 6 0 10 -7 10 -15z m-98 -74 c-2 -17 -8 -28 -13 -26 -4 3 -6 12
-2 20 3 9 -1 15 -11 15 -9 0 -16 5 -16 11 0 6 7 9 15 5 8 -3 15 -1 15 5 0 6 4
8 8 5 5 -3 7 -19 4 -35z m-445 -23 c-3 -8 -6 -5 -6 6 -1 11 2 17 5 13 3 -3 4
-12 1 -19z m763 -38 c0 -5 -2 -10 -4 -10 -3 0 -8 5 -11 10 -3 6 -1 10 4 10 6
0 11 -4 11 -10z m34 1 c3 -5 0 -11 -7 -14 -8 -3 -14 1 -14 9 0 16 13 19 21 5z
m-264 -42 c0 -27 -2 -30 -15 -19 -11 9 -12 17 -4 31 14 27 19 24 19 -12z
m-454 -27 c-4 -3 -11 0 -16 8 -15 24 -11 33 6 15 9 -9 13 -19 10 -23z m229 -2
c3 -5 4 -10 1 -10 -3 0 -8 5 -11 10 -3 6 -4 10 -1 10 3 0 8 -4 11 -10z m270
-50 c3 -5 2 -10 -4 -10 -5 0 -13 5 -16 10 -3 6 -2 10 4 10 5 0 13 -4 16 -10z
m-298 -7 c-4 -3 -10 -3 -14 0 -3 4 0 7 7 7 7 0 10 -3 7 -7z m-22 -13 c3 -5 -1
-10 -9 -10 -9 0 -16 5 -16 10 0 6 4 10 9 10 6 0 13 -4 16 -10z m-208 -37 c-4
-3 -10 -3 -14 0 -3 4 0 7 7 7 7 0 10 -3 7 -7z m96 -24 c7 -1 18 -1 26 0 7 2
10 -2 6 -8 -3 -6 -13 -11 -21 -11 -11 0 -13 -6 -9 -20 4 -13 2 -20 -7 -20 -29
1 -77 63 -58 75 6 3 10 1 10 -4 0 -6 4 -11 10 -11 5 0 6 8 3 18 -7 16 -6 16
11 0 9 -10 23 -19 29 -19z m132 -19 c3 -5 2 -10 -4 -10 -5 0 -13 5 -16 10 -3
6 -2 10 4 10 5 0 13 -4 16 -10z m23 -80 c19 0 42 -25 31 -34 -12 -10 -68 18
-79 39 -10 18 -16 22 -22 13 -5 -9 -8 -7 -8 8 0 34 12 36 34 4 13 -18 30 -30
44 -30z m199 23 c-4 -3 -10 -3 -14 0 -3 4 0 7 7 7 7 0 10 -3 7 -7z m60 0 c-4
-3 -10 -3 -14 0 -3 4 0 7 7 7 7 0 10 -3 7 -7z m-260 -10 c-4 -3 -10 -3 -14 0
-3 4 0 7 7 7 7 0 10 -3 7 -7z m273 -73 c0 -5 -5 -10 -11 -10 -5 0 -7 5 -4 10
3 6 8 10 11 10 2 0 4 -4 4 -10z m-65 -30 c3 -5 1 -10 -4 -10 -6 0 -11 5 -11
10 0 6 2 10 4 10 3 0 8 -4 11 -10z m122 -127 c-4 -3 -7 0 -7 7 0 7 3 10 7 7 3
-4 3 -10 0 -14z m-17 -79 c0 -2 -11 -4 -25 -4 -14 0 -25 4 -25 9 0 4 11 6 25
3 14 -2 25 -6 25 -8z"/>
<path d="M1263 1955 c0 -11 4 -12 14 -4 7 6 13 13 13 15 0 2 -6 4 -13 4 -8 0
-14 -7 -14 -15z"/>
<path d="M1094 1945 c-16 -12 -17 -14 -2 -15 9 0 19 6 22 13 3 6 3 2 0 -10 -3
-13 -1 -23 5 -23 6 0 11 4 11 9 0 5 3 16 6 25 8 20 -16 21 -42 1z"/>
<path d="M1165 1930 c3 -5 8 -10 11 -10 2 0 4 5 4 10 0 6 -5 10 -11 10 -5 0
-7 -4 -4 -10z"/>
<path d="M1225 1879 c-4 -6 -5 -13 -2 -16 7 -7 27 6 27 18 0 12 -17 12 -25 -2z"/>
<path d="M1210 1786 c0 -9 5 -16 10 -16 6 0 10 4 10 9 0 6 -4 13 -10 16 -5 3
-10 -1 -10 -9z"/>
<path d="M1240 1790 c0 -5 5 -10 11 -10 5 0 7 5 4 10 -3 6 -8 10 -11 10 -2 0
-4 -4 -4 -10z"/>
<path d="M1555 1650 c-3 -5 -1 -10 4 -10 6 0 11 5 11 10 0 6 -2 10 -4 10 -3 0
-8 -4 -11 -10z"/>
<path d="M1764 1625 c17 -18 39 -20 34 -3 -2 6 -14 13 -27 15 -20 3 -21 1 -7
-12z"/>
<path d="M2215 1589 c-4 -5 -4 -21 -1 -35 5 -18 2 -26 -10 -31 -15 -5 -14 -8
5 -15 15 -5 21 -14 17 -23 -4 -11 2 -15 20 -15 22 0 24 3 19 23 -4 12 -9 30
-12 41 -3 12 -1 16 6 12 16 -10 14 1 -5 29 -18 27 -29 31 -39 14z"/>
<path d="M1548 1543 c-11 -3 -15 -10 -11 -21 6 -15 5 -15 -10 -3 -27 21 -22
-13 5 -39 28 -25 42 -26 35 0 -3 11 0 18 7 17 14 -2 15 45 1 48 -5 2 -18 1
-27 -2z m19 -20 c-4 -3 -10 -3 -14 0 -3 4 0 7 7 7 7 0 10 -3 7 -7z"/>
<path d="M1830 1529 c0 -5 5 -7 10 -4 6 3 10 8 10 11 0 2 -4 4 -10 4 -5 0 -10
-5 -10 -11z"/>
<path d="M1230 1500 c0 -7 3 -10 7 -7 3 4 3 10 0 14 -4 3 -7 0 -7 -7z"/>
<path d="M1242 1479 c-17 -27 -15 -39 8 -39 28 0 43 33 21 47 -14 9 -20 7 -29
-8z"/>
<path d="M1293 1458 c-15 -21 -32 -66 -27 -71 3 -3 18 8 33 24 15 16 31 25 36
21 4 -4 2 3 -4 16 -13 25 -24 28 -38 10z"/>
<path d="M1600 1458 c0 -4 4 -8 9 -8 6 0 12 4 15 8 3 5 -1 9 -9 9 -8 0 -15 -4
-15 -9z"/>
<path d="M1760 1460 c-8 -5 -13 -10 -10 -11 3 0 15 -2 27 -5 17 -3 21 0 17 11
-7 17 -13 18 -34 5z"/>
<path d="M1858 1448 c5 -5 16 -8 23 -6 8 3 3 7 -10 11 -17 4 -21 3 -13 -5z"/>
<path d="M1990 1436 c-7 -18 -14 -25 -22 -19 -20 12 -58 15 -58 4 0 -5 5 -13
11 -16 6 -5 3 -13 -10 -22 -29 -20 -27 -51 5 -63 30 -12 48 -4 39 17 -4 13 -3
14 10 3 11 -9 12 -17 4 -31 -6 -11 -6 -19 0 -19 5 0 19 20 31 45 12 25 25 43
29 41 14 -9 6 40 -11 63 l-17 24 -11 -27z m-54 -103 c-11 -11 -19 6 -11 24 8
17 8 17 12 0 3 -10 2 -21 -1 -24z m41 20 c-4 -3 -7 0 -7 7 0 7 3 10 7 7 3 -4
3 -10 0 -14z"/>
<path d="M1800 1415 c-7 -9 -20 -13 -29 -10 -24 7 -53 -59 -40 -92 5 -14 6
-29 3 -35 -4 -7 -2 -8 4 -4 7 4 12 2 12 -4 0 -6 14 -1 30 12 17 12 30 28 30
35 0 18 48 -5 55 -27 3 -10 14 -25 24 -34 17 -16 18 -15 15 18 -3 46 -10 56
-38 56 -24 0 -54 26 -43 37 4 3 2 12 -4 19 -8 10 -5 11 12 7 18 -5 21 -3 16
11 -4 10 -7 20 -7 22 0 10 -29 2 -40 -11z m-20 -61 c0 -8 -4 -12 -10 -9 -5 3
-10 1 -10 -6 0 -7 -2 -10 -5 -7 -8 7 5 38 16 38 5 0 9 -7 9 -16z m107 -41 c-4
-3 -10 -3 -14 0 -3 4 0 7 7 7 7 0 10 -3 7 -7z"/>
<path d="M2053 1401 c1 -11 6 -17 14 -14 10 4 11 9 2 19 -15 19 -18 18 -16 -5z"/>
<path d="M1296 1342 c-3 -5 2 -13 11 -16 15 -6 15 -8 3 -17 -13 -8 -13 -10 -1
-18 11 -7 9 -11 -8 -21 -13 -6 -20 -17 -18 -25 3 -7 0 -21 -8 -31 -7 -11 -11
-32 -10 -47 2 -15 -1 -27 -7 -27 -6 0 -8 -7 -5 -15 4 -8 2 -17 -3 -20 -6 -4
-10 1 -10 9 0 10 -9 16 -22 17 -22 1 -20 2 21 15 10 3 10 8 2 18 -6 7 -9 15
-7 17 3 2 -13 3 -35 1 -35 -4 -39 -7 -33 -24 4 -14 2 -18 -5 -14 -8 5 -8 0 -1
-16 6 -13 13 -31 16 -40 4 -10 10 -18 15 -18 4 0 9 -11 11 -25 3 -23 4 -24 33
-11 17 8 38 17 48 20 9 3 17 15 17 26 0 12 3 19 8 17 4 -3 12 1 19 8 9 9 9 15
2 17 -7 2 -3 10 7 18 10 8 15 10 12 5 -4 -6 2 -16 12 -23 15 -9 19 -8 24 4 8
21 -1 34 -24 34 -15 0 -18 6 -15 30 3 21 -1 33 -10 37 -22 8 -18 23 5 23 11 0
20 4 20 9 0 5 8 11 17 13 15 3 27 46 14 49 -3 1 -21 2 -40 4 -18 1 -37 8 -41
15 -5 8 -10 8 -14 2z m-56 -292 c0 -5 -8 -10 -17 -10 -15 0 -16 2 -3 10 19 12
20 12 20 0z"/>
<path d="M1488 1338 c7 -7 12 -16 12 -21 0 -5 -7 -1 -16 7 -17 18 -34 13 -34
-10 0 -15 1 -15 40 -19 14 -1 32 -5 40 -8 8 -4 22 -3 30 3 12 7 11 13 -10 34
-13 15 -35 26 -49 26 -19 0 -22 -3 -13 -12z"/>
<path d="M2007 1330 c-3 -13 0 -16 14 -13 27 8 32 20 10 26 -13 3 -21 -1 -24
-13z"/>
<path d="M2190 1288 c0 -5 7 -11 15 -14 9 -4 15 -19 15 -38 1 -29 2 -30 15
-12 7 10 18 15 24 11 18 -11 12 31 -7 48 -18 16 -62 20 -62 5z m47 -5 c-4 -3
-10 -3 -14 0 -3 4 0 7 7 7 7 0 10 -3 7 -7z"/>
<path d="M1830 1258 c-7 -18 -15 -36 -18 -40 -2 -5 3 -8 12 -8 10 0 16 9 16
21 0 18 2 19 15 9 14 -11 14 -10 6 12 -5 14 -7 29 -4 32 4 3 2 6 -3 6 -5 0
-16 -15 -24 -32z"/>
<path d="M1786 1217 c3 -10 9 -15 12 -12 3 3 0 11 -7 18 -10 9 -11 8 -5 -6z"/>
<path d="M2180 1212 c0 -19 20 -54 20 -35 0 6 3 18 6 26 3 8 -2 17 -10 20 -11
4 -16 1 -16 -11z"/>
<path d="M1195 1200 c4 -6 11 -8 16 -5 14 9 11 15 -7 15 -8 0 -12 -5 -9 -10z"/>
<path d="M2210 1141 c0 -11 -3 -26 -6 -35 -4 -10 -1 -16 8 -16 10 0 15 11 14
35 -1 36 -16 51 -16 16z"/>
<path d="M1111 1134 c0 -11 3 -14 6 -6 3 7 2 16 -1 19 -3 4 -6 -2 -5 -13z"/>
<path d="M1419 1113 c19 -4 21 -7 10 -15 -10 -7 -11 -9 -1 -6 24 6 18 23 -8
25 l-25 1 24 -5z"/>
<path d="M1133 1103 c4 -3 10 -3 14 0 3 4 0 7 -7 7 -7 0 -10 -3 -7 -7z"/>
<path d="M1230 220 c0 -5 5 -10 11 -10 5 0 7 5 4 10 -3 6 -8 10 -11 10 -2 0
-4 -4 -4 -10z"/>
</g>
</svg>
